# xmcd
#
# Track frame offsets:
#	225
#	14920
#	30779
#	42821
#	54667
#
# Disc length: 893 seconds
#
# Revision: 1
# Processed by: cddbd v1.5.2PL0 Copyright (c) Steve Scherf et al.
# Submitted via: audiograbber 1.83.01
#
DISCID=37037a05
DTITLE=Torleif Bakke - Bakke
DYEAR=1995
DGENRE=
TTITLE0=Att det varar här för evigt
TTITLE1=Var är känslan som fanns
TTITLE2=Jag vill inte somna ensam
TTITLE3=Ensam med dig
TTITLE4=Hjärta av guld
EXTD=
EXTT0=
EXTT1=
EXTT2=
EXTT3=
EXTT4=
PLAYORDER=
